<svg id="Layer_5" enable-background="new 0 0 64 64" height="512" viewBox="0 0 64 64" width="512" xmlns="http://www.w3.org/2000/svg"><g><g><g><path d="m32 26 2 4v1l-2 2.45-22.37 27.77c-.4.49-1 .78-1.63.78-1.46 0-2.47-1.45-1.97-2.81l9.97-27.19h-11.78c-1.23 0-2.22-.99-2.22-2.22v-.31c0-.31.07-.62.19-.9l11.81-26.57h20l-9 21h7z" fill="#ff826e"/></g><g><path d="m52 10h-10c-1.105 0-2-.895-2-2v-4c0-1.105.895-2 2-2h10c1.105 0 2 .895 2 2v4c0 1.105-.895 2-2 2z" fill="#aab2bd"/></g><g><path d="m50 2v1c0 1.66-1.34 3-3 3-.83 0-1.58-.34-2.12-.88s-.88-1.29-.88-2.12v-1z" fill="#b4dd7f"/></g><g><path d="m62 22.06v3.94h-30v-3-.94c0-2.45 1.49-4.66 3.77-5.57l6.23-2.49v-4h10v4l6.23 2.49c2.28.91 3.77 3.12 3.77 5.57z" fill="#fcd770"/></g><g><path d="m62 56v2c0 2.21-1.79 4-4 4h-22c-2.21 0-4-1.79-4-4v-2z" fill="#fcd770"/></g><g><path d="m60 41v-11l2-4h-30l2 4v1 10 11l-2 4h30l-2-4z" fill="#ffeaa7"/></g><g><path d="m47 30c6.08 0 11 4.92 11 11s-4.92 11-11 11-11-4.92-11-11 4.92-11 11-11z" fill="#e6e9ed"/></g><g><path d="m53 38-6.69 9.55c-.19.28-.51.45-.86.45-.71 0-1.22-.7-.99-1.38l1.54-4.62h-5l4-8h5l-2 4z" fill="#ff826e"/></g></g><g><path d="m43.512 46.304c-.208.623-.104 1.312.28 1.845s1.006.851 1.662.851c.669 0 1.296-.327 1.678-.875l7.789-11.125h-5.303l2-4h-7.236l-5 10h5.23zm-.894-5.304 3-6h2.764l-2 4h4.697l-5.586 7.979-.084-.043-.001.001 1.98-5.937z"/><path d="m47 53c6.617 0 12-5.383 12-12s-5.383-12-12-12-12 5.383-12 12 5.383 12 12 12zm0-22c5.514 0 10 4.486 10 10s-4.486 10-10 10-10-4.486-10-10 4.486-10 10-10z"/><path d="m5.2 15.989h13.031v2.001h-13.031z" transform="matrix(.406 -.914 .914 .406 -8.568 20.795)"/><path d="m14.632 6.979h2.175v2h-2.175z" transform="matrix(.406 -.914 .914 .406 2.049 19.11)"/><path d="m63 26.236v-4.174c0-2.879-1.728-5.43-4.4-6.5l-5.6-2.24v-2.507c1.161-.414 2-1.514 2-2.816v-3.999c0-1.654-1.346-3-3-3h-10c-1.654 0-3 1.346-3 3v4c0 1.302.839 2.402 2 2.816v2.507l-5.6 2.24c-2.653 1.062-4.371 3.584-4.396 6.437h-4.488l9-21h-22.165l-12.074 27.164c-.183.415-.277.854-.277 1.307v.312c0 1.774 1.443 3.217 3.218 3.217h10.351l-9.475 25.841c-.348.948-.21 2.009.368 2.837s1.526 1.322 2.536 1.322c.94 0 1.819-.42 2.409-1.153l22.367-27.766.226-.276v17.959l-2 4v2.236c0 2.757 2.243 5 5 5h22c2.757 0 5-2.243 5-5v-2.236l-2-4v-21.528zm-2.618 28.764h-26.764l1.382-2.764v-11.236-11.236l-1.382-2.764h26.764l-1.382 2.764v11.236 11.236zm-11.382-52c0 1.103-.897 2-2 2s-2-.897-2-2zm-8 1c0-.551.448-1 1-1h1c0 2.206 1.794 4 4 4s4-1.794 4-4h1c.552 0 1 .449 1 1v4c0 .551-.448 1-1 1h-10c-.552 0-1-.449-1-1zm-4.857 13.42 6.857-2.743v-3.677h8v3.677l6.857 2.742c1.91.765 3.143 2.587 3.143 4.643v2.938h-28v-2.938c0-2.056 1.233-3.878 3.143-4.642zm-27.292 43.172c-.437.541-1.353.51-1.749-.06-.208-.297-.255-.663-.131-1.003l10.461-28.529h-13.214c-.672 0-1.218-.546-1.218-1.218v-.312c0-.171.035-.337.105-.495l11.544-25.975h17.834l-9 21h7.517v2.236l2 4v.411zm49.149.408h-22c-1.654 0-3-1.346-3-3v-1h28v1c0 1.654-1.346 3-3 3z"/></g></g></svg>