<?xml version="1.0" encoding="UTF-8"?>
<svg xmlns="http://www.w3.org/2000/svg" width="512" height="512" viewBox="0 0 128 128"><g><g><path d="M45.375,29.273V13.75h-16.5V29.273A37.681,37.681,0,0,1,21.437,51.75h0A37.686,37.686,0,0,0,14,74.227v49.02a3,3,0,0,0,3,3H57.25a3,3,0,0,0,3-3V74.227A37.681,37.681,0,0,0,52.812,51.75h0A37.686,37.686,0,0,1,45.375,29.273Z" fill="#515165"/><rect x="27.5" y="1.747" width="19.25" height="12.003" fill="#c4715a"/><path d="M42.523,90.779a9.375,9.375,0,1,0-10.8,0H14v21.969H60.25V90.779Z" fill="#ffdd46"/><path d="M76.25,64H114a0,0,0,0,1,0,0v54.25a8,8,0,0,1-8,8H84.25a8,8,0,0,1-8-8V64A0,0,0,0,1,76.25,64Z" fill="#f4f4f7"/><rect x="84.25" y="91.75" width="21.75" height="26.497" fill="#c4715a"/></g><g><path d="M47.125,29.273V15.458A1.749,1.749,0,0,0,48.5,13.75v-12A1.749,1.749,0,0,0,46.75,0H27.5a1.749,1.749,0,0,0-1.75,1.75v12a1.749,1.749,0,0,0,1.375,1.708V29.273a36.173,36.173,0,0,1-7.092,21.433A39.7,39.7,0,0,0,12.25,74.227v49.02A4.756,4.756,0,0,0,17,128H57.25a4.756,4.756,0,0,0,4.75-4.75V74.227a39.7,39.7,0,0,0-7.783-23.521A36.173,36.173,0,0,1,47.125,29.273ZM29.25,3.5H45V12H29.25Zm28,121H17a1.251,1.251,0,0,1-1.25-1.25V114.5h6.375a1.75,1.75,0,0,0,0-3.5H15.75V92.529H31.727a1.75,1.75,0,0,0,1.009-3.179,7.625,7.625,0,1,1,8.778,0,1.749,1.749,0,0,0,1.009,3.179H58.5V111H42a1.75,1.75,0,1,0,0,3.5H58.5v8.749A1.252,1.252,0,0,1,57.25,124.5ZM58.5,89.029H46.544a11.125,11.125,0,1,0-18.838,0H15.75v-14.8a36.173,36.173,0,0,1,7.092-21.433,39.7,39.7,0,0,0,7.783-23.521V15.5h13V29.273a39.7,39.7,0,0,0,7.783,23.521A36.173,36.173,0,0,1,58.5,74.227Z"/><path d="M33.75,111H30.375a1.75,1.75,0,1,0,0,3.5H33.75a1.75,1.75,0,0,0,0-3.5Z"/><path d="M114,72.688a1.75,1.75,0,0,0,1.75-1.75V64a1.749,1.749,0,0,0-1.75-1.75H76.25A1.749,1.749,0,0,0,74.5,64v54.25A9.761,9.761,0,0,0,84.25,128H106a9.761,9.761,0,0,0,9.75-9.75V82.563a1.75,1.75,0,1,0-3.5,0v35.684A6.257,6.257,0,0,1,106,124.5H84.25a6.257,6.257,0,0,1-6.25-6.25v-52.5h34.25v5.191A1.75,1.75,0,0,0,114,72.688Z"/><path d="M84.25,90a1.749,1.749,0,0,0-1.75,1.75v26.5A1.749,1.749,0,0,0,84.25,120H106a1.749,1.749,0,0,0,1.75-1.75V91.75A1.749,1.749,0,0,0,106,90Zm20,26.5H86v-23h18.25Z"/></g></g></svg>
