<?xml version="1.0" encoding="iso-8859-1"?>
<!-- Generator: Adobe Illustrator 19.0.0, SVG Export Plug-In . SVG Version: 6.00 Build 0)  -->
<svg version="1.1" id="Capa_1" xmlns="http://www.w3.org/2000/svg" xmlns:xlink="http://www.w3.org/1999/xlink" x="0px" y="0px"
	 viewBox="0 0 512 512" style="enable-background:new 0 0 512 512;" xml:space="preserve">
<path style="fill:#40CAD2;" d="M341.175,504.484H170.825c-14.196,0-25.704-11.508-25.704-25.704V192.676
	c0-14.196,11.508-25.704,25.704-25.704h170.35c14.196,0,25.704,11.508,25.704,25.704v286.102
	C366.879,492.975,355.371,504.484,341.175,504.484z"/>
<path style="fill:#2FB2B2;" d="M366.882,192.673v286.101c0,14.201-11.515,25.706-25.706,25.706h-25.546
	c14.201,0,25.706-11.505,25.706-25.706V192.673c0-14.191-11.505-25.696-25.706-25.696h25.546
	C355.367,166.977,366.882,178.482,366.882,192.673z"/>
<path style="fill:#75E4EA;" d="M366.882,192.673v93.942H145.119v-93.942c0-14.191,11.515-25.696,25.706-25.696h170.352
	C355.367,166.977,366.882,178.482,366.882,192.673z"/>
<path style="fill:#66D3D3;" d="M366.882,192.673v93.942h-25.385v-93.942c0-14.191-11.515-25.696-25.706-25.696h25.385
	C355.367,166.977,366.882,178.482,366.882,192.673z"/>
<rect x="204.887" y="73.034" style="fill:#75E4EA;" width="102.223" height="93.935"/>
<polygon style="fill:#66D3D3;" points="307.112,166.972 287.932,149.753 287.932,73.034 307.112,73.034 "/>
<path style="fill:#707487;" d="M313.817,73.034H198.183c-2.767,0-5.011-2.244-5.011-5.011V12.527c0-2.767,2.244-5.011,5.011-5.011
	h115.633c2.767,0,5.011,2.244,5.011,5.011v55.495C318.828,70.79,316.585,73.034,313.817,73.034z"/>
<path style="fill:#606575;" d="M318.828,12.527v55.491c0,2.776-2.245,5.011-5.011,5.011h-19.633c2.766,0,5.011-2.235,5.011-5.011
	V12.527c0-2.766-2.245-5.011-5.011-5.011h19.633C316.583,7.516,318.828,9.761,318.828,12.527z"/>
<circle style="fill:#FFD800;" cx="255.998" cy="288.76" r="53.116"/>
<path style="fill:#E8C207;" d="M309.116,288.76c0,29.334-23.782,53.116-53.116,53.116c-20.435,0-38.173-11.545-47.053-28.462
	c8.829,6.554,19.753,10.423,31.599,10.423c29.334,0,53.116-23.782,53.116-53.116c0-8.899-2.185-17.288-6.063-24.654
	C300.658,255.738,309.116,271.262,309.116,288.76z"/>
<path style="fill:#FFD800;" d="M269.53,206.11h-27.059c-2.767,0-5.011-2.244-5.011-5.011V73.034h37.081v128.064
	C274.541,203.867,272.297,206.11,269.53,206.11z"/>
<path style="fill:#E8C207;" d="M269.53,206.11h-10.498V73.034h15.509v128.064C274.541,203.867,272.297,206.11,269.53,206.11z"/>
<path d="M374.396,286.577v-93.9c0-18.318-14.902-33.22-33.22-33.22h-26.547V80.509c6.529-0.421,11.716-5.853,11.716-12.486V12.527
	C326.344,5.619,320.725,0,313.817,0H198.183c-6.908,0-12.527,5.619-12.527,12.527v55.496c0,6.634,5.187,12.065,11.717,12.486v78.947
	h-26.547c-18.318,0-33.22,14.902-33.22,33.22v93.891c0,0.016-0.002,0.032-0.002,0.048s0.002,0.032,0.002,0.048V478.78
	c0,18.318,14.903,33.22,33.22,33.22h170.351c18.318,0,33.22-14.902,33.22-33.22V410.89c0-4.151-3.364-7.516-7.516-7.516
	s-7.516,3.365-7.516,7.516v67.889c0,10.029-8.16,18.188-18.188,18.188H170.825c-10.029,0-18.188-8.159-18.188-18.188V294.132h42.982
	c2.73,30.923,28.76,55.259,60.381,55.259c31.62,0,57.651-24.335,60.381-55.259h42.982v71.659c0,4.151,3.364,7.516,7.516,7.516
	s7.516-3.365,7.516-7.516v-79.138c0-0.013,0.002-0.026,0.002-0.039C374.397,286.601,374.396,286.59,374.396,286.577z
	 M200.689,15.033h110.622v50.485H200.689V15.033z M267.025,80.551v118.043h-22.048V80.551H267.025z M359.363,279.099h-43.509
	c-4.641-28.857-29.709-50.973-59.854-50.973c-2.853,0-5.723,0.2-8.529,0.596c-4.111,0.58-6.973,4.382-6.394,8.493
	c0.58,4.111,4.382,6.971,8.493,6.394c2.114-0.298,4.277-0.449,6.431-0.449c25.144,0,45.599,20.456,45.599,45.599
	c0,25.144-20.456,45.599-45.599,45.599c-25.144,0-45.599-20.456-45.599-45.599c0-8.359,2.28-16.532,6.593-23.634
	c2.155-3.549,1.025-8.172-2.522-10.327c-3.548-2.157-8.171-1.026-10.326,2.523c-4.063,6.689-6.763,14.088-7.999,21.778h-43.509
	v-86.423c0-10.029,8.159-18.188,18.188-18.188h34.063c4.151,0,7.516-3.365,7.516-7.516V80.551h17.538v120.548
	c0,6.908,5.619,12.527,12.527,12.527h27.059c6.908,0,12.527-5.619,12.527-12.527V80.551h17.538v86.423
	c0,4.151,3.364,7.516,7.516,7.516h34.063c10.029,0,18.188,8.159,18.188,18.188v86.422H359.363z"/>
<g>
</g>
<g>
</g>
<g>
</g>
<g>
</g>
<g>
</g>
<g>
</g>
<g>
</g>
<g>
</g>
<g>
</g>
<g>
</g>
<g>
</g>
<g>
</g>
<g>
</g>
<g>
</g>
<g>
</g>
</svg>
