<svg id="icons" enable-background="new 0 0 64 64" height="512" viewBox="0 0 64 64" width="512" xmlns="http://www.w3.org/2000/svg"><path d="m27 14h26v49h-26z" fill="#ffce54"/><path d="m37 8c1.11 0 2 .89 2 2 0 1.1-.89 2-2 2-1.1 0-2-.9-2-2 0-1.11.9-2 2-2z" fill="#e6e9ed"/><path d="m27 63h-16l8-8z" fill="#ffce54"/><path d="m27 14h-8-8l8-8z" fill="#ffce54"/><path d="m19 15v40l-8 8v-49h8z" fill="#edab37"/><path d="m27 14v49l-8-8v-40-1z" fill="#f6bb42"/><path d="m19.01 6h25.99l8 8h-26l-8-8zm17.99 6c1.11 0 2-.9 2-2 0-1.11-.89-2-2-2-1.1 0-2 .89-2 2 0 1.1.9 2 2 2z" fill="#f6bb42"/><path d="m45 6h-25.99v-3c0-1.11.891-2 1.99-2h22c1.11 0 2 .89 2 2z" fill="#ffce54"/><path d="m40 26c3.31 0 6 2.69 6 6s-2.69 6-6 6c-3.311 0-6-2.69-6-6s2.689-6 6-6z" fill="#fc6e51"/><path d="m26.999 14.998c-.256 0-.512-.098-.707-.293l-8.001-8.001c-.391-.391-.391-1.023 0-1.414s1.023-.391 1.414 0l8.001 8.001c.391.391.391 1.023 0 1.414-.195.195-.451.293-.707.293z"/><path d="m53.003 14.998c-.256 0-.512-.098-.707-.293l-8.001-8.001c-.391-.391-.391-1.023 0-1.414s1.023-.391 1.414 0l8.001 8.001c.391.391.391 1.023 0 1.414-.195.195-.451.293-.707.293z"/><path d="m10.997 14.998c-.256 0-.512-.098-.707-.293-.391-.391-.391-1.023 0-1.414l8.001-8.001c.391-.391 1.023-.391 1.414 0s.391 1.023 0 1.414l-8.001 8.001c-.195.195-.451.293-.707.293z"/><path d="m26.999 64c-.256 0-.512-.098-.707-.293l-8.001-8.001c-.391-.391-.391-1.023 0-1.414s1.023-.391 1.414 0l8.001 8.001c.391.391.391 1.023 0 1.414-.195.195-.451.293-.707.293z"/><path d="m10.997 64c-.256 0-.512-.098-.707-.293-.391-.391-.391-1.023 0-1.414l8.001-8.001c.391-.391 1.023-.391 1.414 0s.391 1.023 0 1.414l-8.001 8.001c-.195.195-.451.293-.707.293z"/><path d="m26.999 14.998h-16.002c-.553 0-1-.447-1-1s.447-1 1-1h16.002c.553 0 1 .447 1 1s-.447 1-1 1z"/><path d="m45.002 6.997h-26.004c-.553 0-1-.447-1-1s.447-1 1-1h26.004c.553 0 1 .447 1 1s-.447 1-1 1z"/><path d="m53.003 14.998h-26.004c-.553 0-1-.447-1-1s.447-1 1-1h26.004c.553 0 1 .447 1 1s-.447 1-1 1z"/><path d="m53.003 63.998c-.553 0-1-.447-1-1v-49c0-.553.447-1 1-1s1 .447 1 1v49c0 .553-.447 1-1 1z"/><path d="m53.003 63.998h-42.006c-.553 0-1-.447-1-1s.447-1 1-1h42.006c.553 0 1 .447 1 1s-.447 1-1 1z"/><path d="m10.997 63.998c-.553 0-1-.447-1-1v-49c0-.553.447-1 1-1s1 .447 1 1v49c0 .553-.447 1-1 1z"/><path d="m26.999 63.998c-.553 0-1-.447-1-1v-49c0-.553.447-1 1-1s1 .447 1 1v49c0 .553-.447 1-1 1z"/><path d="m45.002 6.997c-.553 0-1-.447-1-1v-2.999c0-.553.447-1 1-1s1 .447 1 1v2.999c0 .553-.447 1-1 1z"/><path d="m45.002 3.998c-.553 0-1-.447-1-1 0-.551-.447-.998-.998-.998-.553 0-1-.447-1-1s.447-1 1-1c1.653 0 2.998 1.345 2.998 2.998 0 .553-.447 1-1 1z"/><path d="m19.006 6.997c-.553 0-1-.447-1-1v-2.999c0-.553.447-1 1-1s1 .447 1 1v2.999c0 .553-.447 1-1 1z"/><path d="m19.006 3.998c-.553 0-1-.447-1-1 0-1.653 1.345-2.998 2.998-2.998.553 0 1 .447 1 1s-.447 1-1 1c-.551 0-.998.447-.998.998 0 .553-.447 1-1 1z"/><path d="m43.004 2h-22c-.553 0-1-.447-1-1s.447-1 1-1h22c.553 0 1 .447 1 1s-.447 1-1 1z"/><path d="m18.998 55.999c-.553 0-1-.447-1-1v-41.001c0-.553.447-1 1-1s1 .447 1 1v41.001c0 .553-.447 1-1 1z"/><path d="m37.001 12.999c-1.654 0-3-1.346-3-3s1.346-3 3-3 3 1.346 3 3-1.346 3-3 3zm0-4c-.552 0-1 .448-1 1s.448 1 1 1 1-.448 1-1-.448-1-1-1z"/><path d="m40.001 39.003c-3.859 0-7-3.141-7-7s3.141-7 7-7 7 3.141 7 7-3.141 7-7 7zm0-12c-2.757 0-5 2.243-5 5s2.243 5 5 5 5-2.243 5-5-2.243-5-5-5z"/><path d="m40.001 27.002c-.553 0-1-.447-1-1v-1.002c0-.553.447-1 1-1s1 .447 1 1v1.002c0 .553-.447 1-1 1z"/><path d="m43.024 34c-.553 0-1.005-.447-1.005-1s.442-1 .994-1h.011c.552 0 1 .447 1 1s-.448 1-1 1z"/><path d="m41.022 36.002c-.553 0-1.005-.447-1.005-1s.442-1 .994-1h.011c.552 0 1 .447 1 1s-.448 1-1 1z"/><path d="m46.984 46.01h-13.996c-.553 0-1-.447-1-1s.447-1 1-1h13.996c.553 0 1 .447 1 1s-.447 1-1 1z"/><path d="m46.984 43h-13.996c-.553 0-1-.447-1-1s.447-1 1-1h13.996c.553 0 1 .447 1 1s-.447 1-1 1z"/><path d="m46.984 49.01h-13.996c-.553 0-1-.447-1-1s.447-1 1-1h13.996c.553 0 1 .447 1 1s-.447 1-1 1z"/><path d="m41.989 52.01h-4.006c-.553 0-1-.447-1-1s.447-1 1-1h4.006c.553 0 1 .447 1 1s-.447 1-1 1z"/></svg>