<?xml version="1.0" encoding="iso-8859-1"?>
<!-- Generator: Adobe Illustrator 19.0.0, SVG Export Plug-In . SVG Version: 6.00 Build 0)  -->
<svg version="1.1" id="Capa_1" xmlns="http://www.w3.org/2000/svg" xmlns:xlink="http://www.w3.org/1999/xlink" x="0px" y="0px"
	 viewBox="0 0 512 512" style="enable-background:new 0 0 512 512;" xml:space="preserve">
<path style="fill:#E4E7E9;" d="M296.319,125.326V59.44h-80.635v65.886c0,3.014-1.958,5.654-4.821,6.597
	c-46.28,15.229-79.692,58.8-79.692,110.178V488.88c0,8.627,6.993,15.62,15.62,15.62h218.42c8.627,0,15.62-6.993,15.62-15.62V242.101
	c0-51.378-33.412-94.949-79.692-110.178C298.277,130.98,296.319,128.34,296.319,125.326z"/>
<path style="opacity:0.1;enable-background:new    ;" d="M131.171,471.948v16.931c0,8.627,6.993,15.62,15.62,15.62h218.42
	c8.627,0,15.62-6.993,15.62-15.62v-16.931H131.171z"/>
<path style="fill:#4A5058;" d="M304.978,59.44h-97.953c-4.635,0-8.393-3.758-8.393-8.393V15.893c0-4.635,3.758-8.393,8.393-8.393
	h97.953c4.635,0,8.393,3.758,8.393,8.393v35.153C313.371,55.682,309.613,59.44,304.978,59.44z"/>
<path style="opacity:0.1;enable-background:new    ;" d="M304.978,7.5h-24.447c4.635,0,8.393,3.758,8.393,8.393v35.153
	c0,4.636-3.758,8.393-8.393,8.393h24.447c4.635,0,8.393-3.758,8.393-8.393V15.893C313.371,11.258,309.613,7.5,304.978,7.5z"/>
<circle style="opacity:0.6;fill:#FFFFFF;enable-background:new    ;" cx="256.001" cy="199.81" r="31.64"/>
<path style="opacity:0.1;enable-background:new    ;" d="M301.14,131.923c-2.863-0.942-4.821-3.583-4.821-6.597V59.44h-80.755
	v21.722h55.392v55.018c0,3.014,1.958,5.654,4.821,6.597c46.28,15.229,79.692,58.8,79.692,110.178v237.279
	c0,6.366-3.814,11.833-9.277,14.266h19.019c8.627,0,15.62-6.993,15.62-15.62V242.101C380.832,190.723,347.42,147.152,301.14,131.923
	z"/>
<g>
	<path style="fill:#6FA1DA;" d="M328.469,291.762H183.533c-6.729,0-12.185-5.455-12.185-12.185v-16.766
		c0-6.729,5.455-12.185,12.185-12.185h144.936c6.73,0,12.185,5.455,12.185,12.185v16.766
		C340.654,286.307,335.199,291.762,328.469,291.762z"/>
	<path style="fill:#6FA1DA;" d="M304.203,362.412h-96.403c-4.746,0-8.594-3.848-8.594-8.594v-13.313
		c0-4.746,3.848-8.594,8.594-8.594h96.403c4.746,0,8.594,3.848,8.594,8.594v13.313C312.797,358.565,308.949,362.412,304.203,362.412
		z"/>
</g>
<path d="M131.171,423.246c4.142,0,7.5-3.358,7.5-7.5V242.101c0-46.97,29.954-88.384,74.536-103.054
	c5.968-1.963,9.977-7.478,9.977-13.721V66.94h65.635v58.386c0,6.244,4.01,11.757,9.977,13.72
	c14.858,4.89,28.243,12.791,39.782,23.484c1.443,1.338,3.272,1.999,5.096,1.999c2.016,0,4.025-0.807,5.503-2.402
	c2.815-3.038,2.635-7.784-0.403-10.599c-13.044-12.088-28.166-21.043-44.954-26.62V66.94h1.159c8.764,0,15.893-7.13,15.893-15.894
	V15.893C320.871,7.129,313.741,0,304.978,0h-97.953c-8.764,0-15.893,7.129-15.893,15.893v35.153c0,8.764,7.129,15.894,15.893,15.894
	h1.159v57.969c-50.565,16.797-84.513,63.847-84.513,117.192v173.645C123.671,419.888,127.029,423.246,131.171,423.246z
	 M207.025,51.94c-0.493,0-0.893-0.401-0.893-0.894V15.893c0-0.493,0.4-0.893,0.893-0.893h97.953c0.493,0,0.893,0.4,0.893,0.893
	v35.153c0,0.493-0.4,0.894-0.893,0.894H207.025z M256.001,223.946c-3.984,0-7.774-0.936-11.265-2.782
	c-3.661-1.937-8.2-0.539-10.136,3.124c-1.936,3.661-0.538,8.2,3.124,10.136c5.594,2.958,11.914,4.523,18.277,4.523
	c21.582,0,39.141-17.558,39.141-39.14s-17.559-39.14-39.141-39.14s-39.14,17.558-39.14,39.14c0,2.703,0.278,5.403,0.825,8.027
	c0.846,4.055,4.821,6.66,8.874,5.81c4.055-0.846,6.656-4.819,5.81-8.874c-0.337-1.618-0.509-3.287-0.509-4.962
	c0-13.311,10.829-24.14,24.14-24.14s24.141,10.829,24.141,24.14C280.142,213.117,269.313,223.946,256.001,223.946z M368.403,174.816
	c-2.261-3.471-6.907-4.452-10.378-2.192c-3.471,2.26-4.452,6.907-2.192,10.378c11.448,17.581,17.499,38.017,17.499,59.1V488.88
	c0,4.477-3.643,8.12-8.12,8.12H146.79c-4.478,0-8.121-3.643-8.121-8.12v-40.035c0-4.142-3.358-7.5-7.5-7.5
	c-4.142,0-7.5,3.358-7.5,7.5v40.035c0,12.748,10.372,23.12,23.121,23.12h218.42c12.748,0,23.12-10.372,23.12-23.12V242.101
	C388.331,218.105,381.44,194.839,368.403,174.816z M238.855,464.448c-4.142,0-7.5,3.358-7.5,7.5s3.358,7.5,7.5,7.5h34.289
	c4.143,0,7.5-3.358,7.5-7.5s-3.357-7.5-7.5-7.5H238.855z M320.297,353.818v-13.313c0-8.875-7.22-16.094-16.095-16.094h-96.402
	c-8.875,0-16.094,7.22-16.094,16.094v13.313c0,8.875,7.22,16.094,16.094,16.094h96.402
	C313.077,369.912,320.297,362.692,320.297,353.818z M206.706,353.818v-13.313c0-0.604,0.491-1.094,1.094-1.094h96.402
	c0.604,0,1.095,0.491,1.095,1.094v13.313c0,0.603-0.491,1.094-1.095,1.094h-96.402C207.197,354.912,206.706,354.421,206.706,353.818
	z M312.018,319.336c4.143,0,7.5-3.358,7.5-7.5s-3.357-7.5-7.5-7.5H199.984c-4.142,0-7.5,3.358-7.5,7.5s3.358,7.5,7.5,7.5H312.018z
	 M348.154,279.577v-16.766c0-10.854-8.83-19.685-19.685-19.685H183.533c-10.855,0-19.685,8.831-19.685,19.685v16.766
	c0,10.855,8.83,19.685,19.685,19.685h144.936C339.324,299.262,348.154,290.432,348.154,279.577z M178.848,279.577v-16.766
	c0-2.583,2.102-4.685,4.685-4.685h144.936c2.583,0,4.685,2.102,4.685,4.685v16.766c0,2.584-2.102,4.685-4.685,4.685H183.533
	C180.95,284.262,178.848,282.161,178.848,279.577z"/>
<g>
</g>
<g>
</g>
<g>
</g>
<g>
</g>
<g>
</g>
<g>
</g>
<g>
</g>
<g>
</g>
<g>
</g>
<g>
</g>
<g>
</g>
<g>
</g>
<g>
</g>
<g>
</g>
<g>
</g>
</svg>
