<?xml version="1.0" encoding="iso-8859-1"?>
<!-- Generator: Adobe Illustrator 19.0.0, SVG Export Plug-In . SVG Version: 6.00 Build 0)  -->
<svg version="1.1" id="Capa_1" xmlns="http://www.w3.org/2000/svg" xmlns:xlink="http://www.w3.org/1999/xlink" x="0px" y="0px"
	 viewBox="0 0 512 512" style="enable-background:new 0 0 512 512;" xml:space="preserve">
<path style="fill:#96C8EF;" d="M467.9,23.128L448.135,229.71l-15.157,158.38H79.016L63.859,229.71L44.094,23.128
	c-0.803-8.362,5.812-15.599,14.254-15.599h395.298C462.087,7.529,468.703,14.766,467.9,23.128z"/>
<path style="fill:#B3D8F4;" d="M467.9,23.128L448.135,229.71l-15.157,158.38H124.017l-15.157-158.38L89.094,23.128
	c-0.803-8.362,5.812-15.599,14.254-15.599h350.297C462.087,7.529,468.703,14.766,467.9,23.128z"/>
<path style="fill:#96C8EF;" d="M432.977,388.091v109.615c0,3.734-3.021,6.766-6.756,6.766H85.772c-3.734,0-6.756-3.031-6.756-6.766
	V388.091H432.977z"/>
<path style="fill:#C2DFF6;" d="M170.979,305.283l-62.723-93.869c-2.73-4.086-1.631-9.612,2.455-12.343l94.419-63.091
	c4.086-2.73,9.612-1.631,12.343,2.455l62.723,93.869c2.73,4.086,1.631,9.612-2.455,12.343l-94.419,63.091
	C179.237,310.468,173.71,309.369,170.979,305.283z"/>
<path style="fill:#D1E7F8;" d="M361.554,163.403l37.398,106.522c1.628,4.638-0.811,9.716-5.449,11.344l-107.147,37.618
	c-4.638,1.628-9.716-0.811-11.344-5.449l-37.398-106.522c-1.628-4.638,0.811-9.716,5.449-11.344l107.147-37.618
	C354.846,156.327,359.925,158.767,361.554,163.403z"/>
<polygon style="fill:#EE8700;" points="448.135,229.71 438.026,335.3 432.977,388.091 79.016,388.091 73.967,335.3 63.859,229.71 
	"/>
<path style="fill:#B3D8F4;" d="M432.977,445.217v52.489c0,3.734-3.021,6.766-6.756,6.766H85.772c-3.734,0-6.756-3.031-6.756-6.766
	v-52.489H432.977z"/>
<path style="fill:#CC7400;" d="M116.903,313.762l-8.044-84.051H63.858l15.157,158.38h45.001h308.961l5.049-52.79H140.601
	C128.332,335.3,118.072,325.976,116.903,313.762z"/>
<path d="M475.498,21.752C475.498,9.757,465.691,0,453.646,0H183.251c-4.156,0-7.529,3.373-7.529,7.529
	c0,4.166,3.373,7.529,7.529,7.529h270.395c4.165,0,7.232,3.693,6.756,7.348l-10.51,109.846c-0.392,4.146,2.64,7.82,6.786,8.211
	c0.241,0.03,0.482,0.04,0.723,0.04c3.835,0,7.107-2.921,7.478-6.816C476.099,16.162,475.498,23.473,475.498,21.752z"/>
<path d="M455.242,155.449c-4.126-0.391-7.82,2.64-8.211,6.786l-5.732,59.947h-51.134l-21.512-61.272
	c-2.299-6.575-8.532-10.992-15.499-10.992c-1.847,0-3.684,0.311-5.441,0.934l-39.761,13.963c-3.925,1.375-5.983,5.671-4.607,9.596
	c1.375,3.915,5.672,5.983,9.596,4.607l39.761-13.963c0.151-0.05,0.301-0.08,0.452-0.08c0.482,0,1.074,0.291,1.295,0.923
	l19.765,56.283c-11.809,0-104.161,0-123.267,0l-6.234-17.757c-0.05-0.151-0.08-0.301-0.08-0.452c0-0.492,0.291-1.074,0.924-1.295
	l3.945-1.385l14.676-5.15l20.357-7.147c3.915-1.385,5.983-5.682,4.607-9.596c-1.375-3.925-5.682-5.993-9.596-4.618l-24.011,8.432
	l-32.714-48.966c-3.052-4.567-8.161-7.298-13.662-7.298c-3.262,0-6.414,0.954-9.125,2.771l-94.418,63.089
	c-4.567,3.062-7.298,8.171-7.298,13.672c0,3.252,0.954,6.404,2.77,9.115l4.397,6.585H70.705
	C57.196,80.901,51.562,22.279,51.562,21.752c0-3.684,3.042-6.695,6.786-6.695h94.789c4.156,0,7.529-3.363,7.529-7.529
	c0-4.156-3.373-7.529-7.529-7.529H58.348C45.33,0,35.333,11.299,36.605,23.84l27.233,284.649c0.371,3.895,3.644,6.816,7.478,6.816
	c0.241,0,0.482-0.01,0.733-0.03c4.136-0.402,7.167-4.075,6.776-8.211l-6.675-69.825c125.057,0,264.524,0,367.703,0l-13.712,143.323
	H85.852l-4.156-43.525c-0.402-4.136-4.085-7.187-8.211-6.776c-4.146,0.392-7.177,4.065-6.786,8.211l4.788,50.02v109.214
	c0,7.88,6.404,14.294,14.284,14.294h340.45c7.88,0,14.284-6.414,14.284-14.294V388.492l21.512-224.832
	C462.409,159.524,459.377,155.851,455.242,155.449z M240.568,188.464c-6.575,2.309-10.992,8.542-10.992,15.509
	c0,1.847,0.321,3.674,0.934,5.441l4.487,12.768H123.595c-10.285-15.529-10.219-14.941-10.219-15.699c0-0.231,0.06-0.783,0.612-1.154
	c100.725-67.207,94.399-63.32,95.171-63.32c0.221,0,0.773,0.06,1.144,0.612l30.566,45.743L240.568,188.464z M425.449,496.943H86.545
	V395.619h338.904V496.943z"/>
<g>
</g>
<g>
</g>
<g>
</g>
<g>
</g>
<g>
</g>
<g>
</g>
<g>
</g>
<g>
</g>
<g>
</g>
<g>
</g>
<g>
</g>
<g>
</g>
<g>
</g>
<g>
</g>
<g>
</g>
</svg>
