<?xml version="1.0" encoding="iso-8859-1"?>
<!-- Generator: Adobe Illustrator 19.0.0, SVG Export Plug-In . SVG Version: 6.00 Build 0)  -->
<svg version="1.1" id="Capa_1" xmlns="http://www.w3.org/2000/svg" xmlns:xlink="http://www.w3.org/1999/xlink" x="0px" y="0px"
	 viewBox="0 0 512 512" style="enable-background:new 0 0 512 512;" xml:space="preserve">
<rect x="233.76" y="358.82" style="fill:#E2EEFD;" width="44.485" height="105.12"/>
<rect x="256.18" y="358.82" style="fill:#C7DCF2;" width="22.06" height="105.12"/>
<path style="fill:#E2EEFD;" d="M349.815,511.995h-187.63c-2.855,0-5.17-2.315-5.17-5.17v-16.268c0-14.7,11.916-26.616,26.616-26.616
	H328.37c14.7,0,26.616,11.916,26.616,26.616v16.268C354.986,509.68,352.671,511.995,349.815,511.995z"/>
<path style="fill:#C7DCF2;" d="M354.991,490.554v16.276c0,2.855-2.315,5.17-5.17,5.17h-28.426v-21.446
	c0-14.694-11.912-26.617-26.617-26.617h33.597C343.074,463.937,354.991,475.854,354.991,490.554z"/>
<path style="fill:#E2EEFD;" d="M433.537,145.651c-4.766-17.787-10.702-35.237-16.712-52.634
	c-10.577-30.618-22.707-61.03-37.023-90.134C378.932,1.116,377.125,0,375.155,0h-238.31c-1.97,0-3.776,1.116-4.646,2.883
	c-14.317,29.104-26.446,59.516-37.023,90.134c-6.01,17.397-11.946,34.847-16.712,52.634c-16.053,59.912-11.498,120.24,28.199,169.9
	c76.058,95.149,222.65,95.108,298.676,0C445.034,265.892,449.589,205.563,433.537,145.651z"/>
<path style="fill:#C7DCF2;" d="M405.339,315.547c-43.689,54.66-110.696,77.927-174.218,69.758
	c47.05-6.018,92.197-29.274,124.553-69.758c39.698-49.656,44.258-109.983,28.199-169.896c-4.767-17.786-10.702-35.241-16.71-52.634
	c-10.92-31.632-23.504-63.036-38.446-93.014h46.438c1.97,0,3.776,1.115,4.646,2.883c14.318,29.105,26.449,59.511,37.029,90.13
	c6.008,17.393,11.943,34.848,16.71,52.634C449.586,205.564,445.037,265.891,405.339,315.547z"/>
<path style="fill:#BC0F0F;" d="M379.261,162.208c9.753-4.469,21.06,1.455,22.888,12.026c7.179,41.509,0.795,82.386-26.747,116.841
	c-60.786,76.043-177.992,76.075-238.804,0c-25.396-31.771-32.803-69.003-28.174-107.155c1.492-12.299,15.748-18.222,25.779-10.952
	c21.67,15.707,47.498,25.579,73.888,31.883c34.389,8.214,66.892,7.738,99.949-4.749
	C333.136,190.622,354.866,173.386,379.261,162.208z"/>
<path style="fill:#A80505;" d="M375.403,291.071c-34.517,43.182-87.233,61.858-137.478,55.994
	c38.25-4.457,75.062-23.132,101.328-55.994c27.547-34.455,33.928-75.331,26.751-116.838c-0.279-1.623-0.786-3.133-1.468-4.508
	c4.829-2.678,9.72-5.232,14.725-7.518c9.751-4.467,21.064,1.458,22.884,12.026C409.331,215.74,402.94,256.616,375.403,291.071z"/>
<g>
</g>
<g>
</g>
<g>
</g>
<g>
</g>
<g>
</g>
<g>
</g>
<g>
</g>
<g>
</g>
<g>
</g>
<g>
</g>
<g>
</g>
<g>
</g>
<g>
</g>
<g>
</g>
<g>
</g>
</svg>
